<svg version="1.2" baseProfile="tiny-ps" xmlns="http://www.w3.org/2000/svg" viewBox="0 0 496 512" width="496" height="512">
	<title>20-svg</title>
	<style>
		tspan { white-space:pre }
		.shp0 { fill: #ffffff } 
	</style>
	<path id="Layer" fill-rule="evenodd" class="shp0" d="M496 256C496 393 385 504 248 504C111 504 0 393 0 256C0 119 111 8 248 8C385 8 496 119 496 256ZM369.8 177.9C373.4 161.1 363.7 154.4 352.6 158.4L113.5 250.6C97.1 257 97.4 266.1 110.7 270.3L171.9 289.4L313.9 200C320.5 195.6 326.6 198.1 321.6 202.5L206.7 306.3L202.3 369.4C208.7 369.4 211.5 366.6 214.8 363.3L244.7 334.5L306.7 380.2C318 386.6 326.1 383.3 329.1 369.7L369.8 177.9Z" />
</svg>