<svg version="1.2" baseProfile="tiny-ps" xmlns="http://www.w3.org/2000/svg" viewBox="0 0 448 512" width="448" height="512">
	<title>22-svg</title>
	<style>
		tspan { white-space:pre }
		.shp0 { fill: #ffffff } 
	</style>
	<path id="Layer" fill-rule="evenodd" class="shp0" d="M380.9 97.1C422.8 139.1 448 194.8 448 254.1C448 376.5 346.2 476.1 223.9 476.1L223.8 476.1C186.6 476.1 150.1 466.8 117.7 449.1L0 480L31.5 365C12.1 331.3 1.9 293.1 1.9 254C1.9 131.6 101.5 32 223.9 32C283.2 32 339 55.1 380.9 97.1ZM223.9 438.7C325.6 438.7 410.5 355.9 410.5 254.1C410.6 204.8 389.2 158.5 354.4 123.6C319.6 88.7 273.3 69.5 224 69.5C122.2 69.5 39.4 152.3 39.4 254C39.4 288.9 49.1 322.8 67.6 352.2L72 359.2L53.4 427.3L123.2 409L129.9 413C158.2 429.8 190.7 438.7 223.9 438.7ZM335.6 307.1C337 309.4 337 320.5 332.4 333.5C327.8 346.5 305.7 358.3 295 359.9C277.4 362.5 263.6 361.2 228.4 346C172.7 321.9 136.4 265.9 133.6 262.2C130.9 258.5 111 232.1 111 204.8C111 177.5 125.3 164.1 130.4 158.5C135.5 153 141.5 151.6 145.2 151.6C148.9 151.6 152.6 151.6 155.8 151.8C159.2 152 163.8 150.5 168.3 161.3C172.9 172.4 184 199.7 185.4 202.5C186.8 205.3 187.7 208.5 185.9 212.2C175.3 233.4 163.9 232.7 169.6 242.5C191.1 279.4 212.5 292.2 245.1 308.5C250.6 311.3 253.9 310.8 257.1 307.1C260.4 303.3 271 290.9 274.7 285.3C278.4 279.7 282.1 280.6 287.2 282.5C292.3 284.3 319.6 297.7 325.1 300.5C330.6 303.2 334.3 304.6 335.6 307.1Z" />
</svg>