<svg version="1.2" baseProfile="tiny-ps" xmlns="http://www.w3.org/2000/svg" viewBox="0 0 544 544" width="544" height="544">
	<title>13-svg</title>
	<style>
		tspan { white-space:pre }
		.shp0 { fill: none;stroke: #ffffff;stroke-width: 48 } 
		.shp1 { fill: #ffffff } 
	</style>
	<path id="Shape 5" class="shp0" d="M272 518.08C135.41 518.08 25 408.1 25 272.04C25 135.98 135.41 26 272 26C408.59 26 519 135.98 519 272.04C519 408.1 408.59 518.08 272 518.08Z" />
	<path id="Shape 6" class="shp1" d="M106 285L125.03 410C126.03 410.39 137.17 423.09 137.17 423.09L408.25 422.53L419.75 412.03C419.75 412.03 439.25 266.28 443 266L106 265L106 285Z" />
	<path id="Shape 5 copy" class="shp1" d="M408.5 422C402.14 422 397 416.86 397 410.5C397 404.14 402.14 399 408.5 399C414.86 399 420 404.14 420 410.5C420 416.86 414.86 422 408.5 422Z" />
	<path id="Shape 5 copy 2" class="shp1" d="M137.5 423C131.14 423 126 417.86 126 411.5C126 405.14 131.14 400 137.5 400C143.86 400 149 405.14 149 411.5C149 417.86 143.86 423 137.5 423Z" />
	<path id="Shape 2" class="shp1" d="M238 69L305 69L305 342L238 342L238 69Z" />
	<path id="Shape 3" class="shp1" d="M92 243L452 243L452 278L92 278L92 243Z" />
	<path id="Shape 4" class="shp1" d="M112 286C100.94 286 92 282.2 92 277.5C92 272.8 100.94 269 112 269C123.06 269 132 272.8 132 277.5C132 282.2 123.06 286 112 286Z" />
	<path id="Shape 4 copy" class="shp1" d="M432 287C420.94 287 412 283.2 412 278.5C412 273.8 420.94 270 432 270C443.06 270 452 273.8 452 278.5C452 283.2 443.06 287 432 287Z" />
	<path id="Shape 7" class="shp1" d="M-335 -103" />
</svg>