<svg version="1.2" baseProfile="tiny-ps" xmlns="http://www.w3.org/2000/svg" viewBox="0 0 95 95" width="95" height="95">
	<title>28-svg</title>
	<style>
		tspan { white-space:pre }
		.shp0 { fill: #5f6368 } 
	</style>
	<g id="Layer">
		<path id="Layer" class="shp0" d="M55.93 47.46L94.31 9.09C95.13 8.26 95.13 6.92 94.31 6.1L88.83 0.62C88.44 0.22 87.9 0 87.33 0C86.77 0 86.23 0.22 85.84 0.62L47.46 38.99L9.09 0.62C8.29 -0.18 6.89 -0.17 6.09 0.62L0.62 6.1C-0.2 6.92 -0.2 8.26 0.62 9.09L39 47.46L0.62 85.84C-0.2 86.66 -0.2 88 0.62 88.83L6.09 94.31C6.49 94.7 7.03 94.93 7.59 94.93C8.16 94.93 8.69 94.7 9.09 94.31L47.46 55.93L85.84 94.31C86.23 94.7 86.77 94.93 87.34 94.93C87.9 94.93 88.44 94.7 88.83 94.31L94.31 88.83C95.13 88 95.13 86.66 94.31 85.84L55.93 47.46Z" />
	</g>
</svg>