<svg version="1.2" baseProfile="tiny-ps" xmlns="http://www.w3.org/2000/svg" viewBox="0 0 16 16" width="16" height="16">
	<title>question-mark-in-a-shield-svgrepo-com-svg</title>
	<style>
		tspan { white-space:pre }
		.shp0 { fill: #5f6368 } 
	</style>
	<g id="Layer">
		<path id="Layer" fill-rule="evenodd" class="shp0" d="M14.36 4.49C13.91 6.34 11.52 15.61 7.81 15.61C4.09 15.61 1.7 6.34 1.26 4.49C1.2 4.23 1.28 3.97 1.48 3.8C1.68 3.63 1.95 3.58 2.19 3.68C2.19 3.68 2.52 3.79 3.01 3.79C4.14 3.79 5.78 3.2 7.18 0.39C7.31 0.14 7.54 -0.01 7.83 0C8.1 0.01 8.34 0.17 8.45 0.42C9.65 3.21 11.32 3.79 12.52 3.79C13.07 3.79 13.44 3.67 13.45 3.67C13.69 3.58 13.96 3.64 14.14 3.81C14.33 3.98 14.41 4.24 14.36 4.49ZM12.74 5.18C12.67 5.19 12.6 5.19 12.52 5.19C11.36 5.19 9.32 4.76 7.77 2.17C6.01 4.87 3.97 5.22 2.88 5.19C3.97 9.24 6.03 14.22 7.81 14.22C9.59 14.22 11.65 9.23 12.74 5.18Z" />
		<path id="Layer" class="shp0" d="M7.54 10.28C7.02 10.28 6.65 10.66 6.65 11.19C6.65 11.71 7.01 12.1 7.54 12.1C8.08 12.1 8.45 11.71 8.45 11.19C8.44 10.66 8.08 10.28 7.54 10.28Z" />
		<path id="Layer" class="shp0" d="M7.68 5.13C6.97 5.13 6.37 5.33 6.01 5.54L6.35 6.63C6.61 6.45 7.01 6.33 7.34 6.33C7.84 6.35 8.07 6.58 8.07 6.93C8.07 7.27 7.81 7.59 7.49 7.97C7.04 8.51 6.87 9.04 6.9 9.55L6.91 9.81L8.24 9.81L8.24 9.63C8.23 9.18 8.38 8.79 8.76 8.37C9.14 7.95 9.61 7.45 9.61 6.69C9.61 5.86 9.01 5.13 7.68 5.13Z" />
	</g>
</svg>