<svg version="1.2" baseProfile="tiny-ps" xmlns="http://www.w3.org/2000/svg" viewBox="0 0 32 32" width="32" height="32">
	<title>home-svg</title>
	<style>
		tspan { white-space:pre }
		.shp0 { fill: none } 
		.shp1 { fill: #5f6368 } 
	</style>
	<path id="_Transparent_Rectangle_" class="shp0" d="M0 0L32 0L32 32L0 32L0 0Z" />
	<path id="Layer" fill-rule="evenodd" class="shp1" d="M31 13.43L29.76 15L28 13.63L28 26C28 26.26 27.95 26.52 27.85 26.76C27.75 27.01 27.6 27.23 27.41 27.41C27.23 27.6 27.01 27.75 26.76 27.85C26.52 27.95 26.26 28 26 28L6 28C5.74 28 5.48 27.95 5.24 27.85C4.99 27.75 4.77 27.6 4.59 27.41C4.4 27.23 4.25 27.01 4.15 26.76C4.05 26.52 4 26.26 4 26L4 13.62L2.24 14.99L1 13.42L15.37 2.21C15.46 2.15 15.56 2.09 15.66 2.05C15.77 2.02 15.88 2 15.99 2C16.1 2 16.21 2.02 16.32 2.05C16.43 2.09 16.52 2.15 16.61 2.21L31 13.43ZM26 26L26 12.07L16 4.27L6 12.06L6 26L12 26L12 18C12 17.74 12.05 17.48 12.15 17.23C12.25 16.99 12.4 16.77 12.59 16.59C12.77 16.4 12.99 16.25 13.23 16.15C13.48 16.05 13.74 16 14 16L18 16C18.26 16 18.52 16.05 18.77 16.15C19.01 16.25 19.23 16.4 19.41 16.59C19.6 16.77 19.75 16.99 19.85 17.23C19.95 17.48 20 17.74 20 18L20 26L26 26ZM18 18L14 18L14 26L18 26L18 18Z" />
</svg>