<svg version="1.2" baseProfile="tiny-ps" xmlns="http://www.w3.org/2000/svg" viewBox="0 0 32 32" width="32" height="32">
	<title>chat-svg</title>
	<style>
		tspan { white-space:pre }
		.shp0 { fill: #5f6368 } 
		.shp1 { fill: none } 
	</style>
	<path id="Layer" class="shp0" d="M17.74 30L16 29L20 22L26 22C26.26 22 26.52 21.95 26.77 21.85C27.01 21.75 27.23 21.6 27.41 21.41C27.6 21.23 27.75 21.01 27.85 20.77C27.95 20.52 28 20.26 28 20L28 8C28 7.74 27.95 7.48 27.85 7.23C27.75 6.99 27.6 6.77 27.41 6.59C27.23 6.4 27.01 6.25 26.77 6.15C26.52 6.05 26.26 6 26 6L6 6C5.74 6 5.48 6.05 5.23 6.15C4.99 6.25 4.77 6.4 4.59 6.59C4.4 6.77 4.25 6.99 4.15 7.23C4.05 7.48 4 7.74 4 8L4 20C4 20.26 4.05 20.52 4.15 20.77C4.25 21.01 4.4 21.23 4.59 21.41C4.77 21.6 4.99 21.75 5.23 21.85C5.48 21.95 5.74 22 6 22L15 22L15 24L6 24C5.47 24 4.95 23.9 4.47 23.7C3.98 23.49 3.54 23.2 3.17 22.83C2.8 22.46 2.51 22.02 2.3 21.53C2.1 21.05 2 20.53 2 20L2 8C2 7.47 2.1 6.95 2.3 6.47C2.51 5.98 2.8 5.54 3.17 5.17C3.54 4.8 3.98 4.51 4.47 4.3C4.95 4.1 5.47 4 6 4L26 4C26.53 4 27.05 4.1 27.53 4.3C28.02 4.51 28.46 4.8 28.83 5.17C29.2 5.54 29.49 5.98 29.7 6.47C29.9 6.95 30 7.47 30 8L30 20C30 20.53 29.9 21.05 29.7 21.53C29.49 22.02 29.2 22.46 28.83 22.83C28.46 23.2 28.02 23.49 27.53 23.7C27.05 23.9 26.53 24 26 24L21.16 24L17.74 30Z" />
	<path id="Layer" class="shp0" d="M8 10L24 10L24 12L8 12L8 10Z" />
	<path id="Layer" class="shp0" d="M8 16L18 16L18 18L8 18L8 16Z" />
	<path id="_Transparent_Rectangle_" class="shp1" d="M0 0L32 0L32 32L0 32L0 0Z" />
</svg>