<svg version="1.2" baseProfile="tiny-ps" xmlns="http://www.w3.org/2000/svg" viewBox="0 0 32 32" width="32" height="32">
	<title>camera-svg</title>
	<style>
		tspan { white-space:pre }
		.shp0 { fill: #5f6368 } 
		.shp1 { fill: none } 
	</style>
	<path id="Layer" fill-rule="evenodd" class="shp0" d="M29 26L3 26C2.87 26 2.74 25.97 2.62 25.92C2.5 25.87 2.39 25.8 2.29 25.71C2.2 25.61 2.13 25.5 2.08 25.38C2.03 25.26 2 25.13 2 25L2 8C2 7.87 2.03 7.74 2.08 7.62C2.13 7.5 2.2 7.39 2.29 7.29C2.39 7.2 2.5 7.13 2.62 7.08C2.74 7.03 2.87 7 3 7L9.46 7L11.17 4.45C11.22 4.38 11.27 4.32 11.33 4.26C11.39 4.21 11.46 4.16 11.53 4.12C11.6 4.08 11.68 4.05 11.76 4.03C11.84 4.01 11.92 4 12 4L20 4C20.08 4 20.16 4.01 20.24 4.03C20.32 4.05 20.4 4.08 20.47 4.12C20.54 4.16 20.61 4.21 20.67 4.26C20.73 4.32 20.78 4.38 20.83 4.45L22.54 7L29 7C29.13 7 29.26 7.03 29.38 7.08C29.5 7.13 29.61 7.2 29.71 7.29C29.8 7.39 29.87 7.5 29.92 7.62C29.97 7.74 30 7.87 30 8L30 25C30 25.13 29.97 25.26 29.92 25.38C29.87 25.5 29.8 25.61 29.71 25.71C29.61 25.8 29.5 25.87 29.38 25.92C29.26 25.97 29.13 26 29 26ZM4 24L28 24L28 9L22 9C21.92 9 21.84 8.99 21.76 8.97C21.68 8.95 21.6 8.92 21.53 8.88C21.46 8.84 21.39 8.79 21.33 8.74C21.27 8.68 21.22 8.62 21.17 8.55L19.46 6L12.54 6L10.83 8.55C10.78 8.62 10.73 8.68 10.67 8.74C10.61 8.79 10.54 8.84 10.47 8.88C10.4 8.92 10.32 8.95 10.24 8.97C10.16 8.99 10.08 9 10 9L4 9L4 24Z" />
	<path id="Layer" fill-rule="evenodd" class="shp0" d="M16 22C13.57 22 11.39 20.54 10.46 18.3C9.53 16.05 10.04 13.47 11.76 11.76C13.47 10.04 16.05 9.53 18.3 10.46C20.54 11.39 22 13.57 22 16C22 16.79 21.84 17.57 21.54 18.3C21.24 19.02 20.8 19.69 20.24 20.24C19.69 20.8 19.02 21.24 18.3 21.54C17.57 21.84 16.79 22 16 22ZM16 12C14.38 12 12.92 12.97 12.3 14.47C11.69 15.96 12.03 17.68 13.17 18.83C14.32 19.97 16.04 20.31 17.53 19.7C19.03 19.08 20 17.62 20 16C20 15.47 19.9 14.95 19.7 14.47C19.49 13.98 19.2 13.54 18.83 13.17C18.46 12.8 18.02 12.51 17.53 12.3C17.05 12.1 16.53 12 16 12Z" />
	<path id="_Transparent_Rectangle_" class="shp1" d="M0 0L32 0L32 32L0 32L0 0Z" />
</svg>